<svg xmlns="http://www.w3.org/2000/svg" width="346.667" height="346.667" preserveAspectRatio="xMidYMid meet" version="1.0" viewBox="0 0 260 260"><metadata>Created by potrace 1.11, written by Peter Selinger 2001-2013</metadata><g fill="#000" stroke="none"><path d="M1215 2461 c-33 -4 -82 -15 -110 -24 -27 -9 -83 -21 -123 -26 -51 -6 -81 -16 -95 -29 -12 -11 -39 -24 -60 -27 -21 -4 -51 -18 -67 -31 -15 -13 -37 -24 -49 -24 -11 0 -35 -14 -53 -30 -18 -17 -63 -56 -100 -86 -37 -30 -96 -89 -132 -132 -36 -42 -76 -89 -90 -104 -13 -15 -27 -41 -31 -58 -4 -17 -17 -43 -29 -58 -13 -15 -26 -43 -30 -63 -4 -21 -16 -49 -27 -64 -14 -17 -24 -50 -30 -98 -4 -40 -17 -108 -28 -151 -27 -103 -27 -209 0 -311 11 -44 24 -112 29 -152 5 -48 14 -81 29 -98 11 -15 23 -43 27 -64 4 -20 17 -48 30 -63 12 -15 25 -40 29 -56 3 -16 19 -42 35 -57 17 -16 30 -33 30 -39 0 -16 147 -168 213 -221 21 -16 51 -42 66 -57 15 -15 41 -30 57 -34 16 -4 41 -17 56 -29 15 -13 44 -26 64 -30 21 -4 51 -16 67 -27 17 -12 56 -23 98 -29 39 -5 100 -18 136 -29 91 -28 255 -28 347 1 37 11 101 24 142 29 53 5 82 14 97 28 12 11 39 24 60 27 21 4 51 18 67 31 15 13 37 24 49 24 11 0 36 15 55 33 19 17 55 48 81 67 60 44 119 103 170 170 22 29 52 65 67 80 15 15 30 40 34 56 4 16 17 41 29 56 13 15 26 43 29 64 4 20 16 49 27 64 13 17 24 54 30 99 5 40 18 102 29 138 28 92 28 266 0 348 -11 33 -24 95 -29 138 -6 56 -15 85 -29 100 -11 12 -24 39 -27 60 -4 21 -18 51 -31 67 -13 15 -24 37 -24 49 0 11 -15 36 -32 55 -18 19 -49 55 -68 82 -45 61 -113 129 -174 174 -27 19 -63 50 -82 68 -19 17 -45 32 -58 32 -12 0 -33 11 -45 24 -13 14 -40 28 -62 31 -21 4 -50 16 -64 27 -16 13 -51 23 -96 29 -39 5 -98 17 -132 28 -74 22 -190 32 -272 22z m450 -230 c6 -21 -5 -53 -34 -96 -12 -16 -21 -41 -21 -53 0 -13 -13 -57 -30 -99 -16 -41 -30 -84 -30 -95 0 -11 -13 -50 -30 -88 -16 -38 -30 -78 -30 -90 0 -12 -13 -52 -29 -88 -16 -37 -32 -84 -35 -105 -4 -21 -15 -52 -26 -70 -10 -18 -21 -52 -25 -77 -4 -25 -12 -53 -17 -63 -17 -33 0 -62 88 -151 47 -48 92 -103 100 -121 29 -70 13 -168 -35 -215 -47 -46 -315 -331 -346 -367 -63 -75 -116 -123 -136 -123 -41 0 -44 73 -5 131 8 14 20 49 27 79 6 30 19 69 29 86 10 17 23 55 29 83 6 28 22 78 36 111 14 33 25 70 25 82 0 13 9 40 20 61 11 21 27 68 36 105 8 37 24 79 34 93 45 63 43 69 -84 191 -100 96 -118 119 -131 162 -34 113 -16 156 127 302 62 64 163 165 223 227 61 61 117 121 125 133 8 12 35 38 58 58 47 38 74 37 87 -3z" transform="translate(0.000000,260.000000) scale(0.100000,-0.100000)"/></g></svg>